{"title":"Jab Tak Hai Jaan 2012 DVDScr x264 - Exclusive","uid":7855552,"size":739516075,"categoryP":"video","categoryS":"movies","magnet":"?xt=urn:btih:395c2069afa4d480b37d47d68390e853ba3c7239&amp;dn=Jab+Tak+Hai+Jaan+2012+DVDScr+x264+-+Exclusive&amp;tr=udp%3A%2F%2Ftracker.openbittorrent.com%3A80&amp;tr=udp%3A%2F%2Fopen.demonii.com%3A1337&amp;tr=udp%3A%2F%2Ftracker.coppersurfer.tk%3A6969&amp;tr=udp%3A%2F%2Fexodus.desync.com%3A6969","seeders":1,"leechers":0,"uploader":"tykoon123","files":-1,"time":1353751884,"description":"Poster: &lt;a href=&quot;\nhttp://www.hindustantimes.com/Images/Popup/2012/9/JTHJ-poster.jpg&quot; rel=&quot;nofollow&quot; target=&quot;_NEW&quot;&gt;\nhttp://www.hindustantimes.com/Images/Popup/2012/9/JTHJ-poster.jpg&lt;/a&gt;\n\nInfo:\n\nFormat : Matroska\nFormat version : Version 2\nFile size : 705 MiB\nDuration : 2h 35mn\nOverall bit rate : 635 Kbps\nEncoded date : UTC 2012-11-22 16:37:18\nWriting application : mkvmerge v5.6.0 ('Kenya Kane') built on May 27 2012 16:44:04\nWriting library : libebml v1.2.3 + libmatroska v1.3.0\n\nVideo\nID : 1\nFormat : AVC\nFormat/Info : Advanced Video Codec\nFormat profile : &lt;a class=&quot;__cf_email__&quot; href=&quot;/cdn-cgi/l/email-protection&quot; data-cfemail=&quot;96defff1fed6daa5b8a6&quot;&gt;[email&amp;#160;protected]&lt;/a&gt;&lt;script cf-hash='f9e31' type=&quot;text/javascript&quot;&gt;\n/* &lt;![CDATA[ */!function(){try{var t=&quot;currentScript&quot;in document?document.currentScript:function(){for(var t=document.getElementsByTagName(&quot;script&quot;),e=t.length;e--;)if(t[e].getAttribute(&quot;cf-hash&quot;))return t[e]}();if(t&amp;&amp;t.previousSibling){var e,r,n,i,c=t.previousSibling,a=c.getAttribute(&quot;data-cfemail&quot;);if(a){for(e=&quot;&quot;,r=parseInt(a.substr(0,2),16),n=2;a.length-n;n+=2)i=parseInt(a.substr(n,2),16)^r,e+=String.fromCharCode(i);e=document.createTextNode(e),c.parentNode.replaceChild(e,c)}}}catch(u){}}();/* ]]&gt; */&lt;/script&gt;\nFormat settings, CABAC : Yes\nFormat settings, ReFrames : 4 frames\nMuxing mode : Header stripping\nCodec ID : V_MPEG4/ISO/AVC\nDuration : 2h 35mn\nBit rate : 570 Kbps\nWidth : 720 pixels\nHeight : 320 pixels\nDisplay aspect ratio : 2.25:1\nFrame rate : 23.976 fps\nColor space : YUV\nChroma subsampling : 4:2:0\nBit depth : 8 bits\nScan type : Progressive\nBits/(Pixel*Frame) : 0.103\nStream size : 620 MiB (88%)\nTitle : ToM-ExD\nWriting library : x264 core 125 r2200 999b753\nLanguage : Hindi\nDefault : Yes\nForced : No\n\nAudio\nID : 2\nFormat : AC-3\nFormat/Info : Audio Coding 3\nMode extension : CM (complete main)\nFormat settings, Endianness : Big\nMuxing mode : Header stripping\nCodec ID : A_AC3\nDuration : 2h 35mn\nBit rate mode : Constant\nBit rate : 64.0 Kbps\nChannel(s) : 2 channels\nChannel positions : Front: L R\nSampling rate : 44.1 KHz\nBit depth : 16 bits\nCompression mode : Lossy\nStream size : 71.1 MiB (10%)\nTitle : Hindi [ToM-ExD]\nLanguage : Hindi\nDefault : Yes\nForced : No\n\nScreens: &lt;a href=&quot;\nhttp://imgr.us/images/gjggnqo5874ahee7bsod.jpg&quot; rel=&quot;nofollow&quot; target=&quot;_NEW&quot;&gt;\nhttp://imgr.us/images/gjggnqo5874ahee7bsod.jpg&lt;/a&gt; &lt;a href=&quot;\nhttp://imgr.us/images/c2yrepn618ome3n5efiq.jpg&quot; rel=&quot;nofollow&quot; target=&quot;_NEW&quot;&gt;\nhttp://imgr.us/images/c2yrepn618ome3n5efiq.jpg&lt;/a&gt; &lt;a href=&quot;\nhttp://imgr.us/images/7yvqudfwp2bggtujeof3.png&quot; rel=&quot;nofollow&quot; target=&quot;_NEW&quot;&gt;\nhttp://imgr.us/images/7yvqudfwp2bggtujeof3.png&lt;/a&gt; &lt;a href=&quot;\nhttp://imgr.us/images/xy6sn2slzzpey8ow9r8.png&quot; rel=&quot;nofollow&quot; target=&quot;_NEW&quot;&gt;\nhttp://imgr.us/images/xy6sn2slzzpey8ow9r8.png&lt;/a&gt; &lt;a href=&quot;\nhttp://imgr.us/images/tjsuk5fgdjpcjuo86qa.png&quot; rel=&quot;nofollow&quot; target=&quot;_NEW&quot;&gt;\nhttp://imgr.us/images/tjsuk5fgdjpcjuo86qa.png&lt;/a&gt;","torrent":{"xt":"urn:btih:395c2069afa4d480b37d47d68390e853ba3c7239","amp;dn":"Jab+Tak+Hai+Jaan+2012+DVDScr+x264+-+Exclusive","amp;tr":["udp%3A%2F%2Ftracker.openbittorrent.com%3A80","udp%3A%2F%2Fopen.demonii.com%3A1337","udp%3A%2F%2Ftracker.coppersurfer.tk%3A6969","udp%3A%2F%2Fexodus.desync.com%3A6969"],"infoHash":"395c2069afa4d480b37d47d68390e853ba3c7239","infoHashBuffer":{"type":"Buffer","data":[57,92,32,105,175,164,212,128,179,125,71,214,131,144,232,83,186,60,114,57]},"announce":[],"urlList":[]}}